<svg viewBox="0 0 213 154" xmlns="http://www.w3.org/2000/svg" xmlns:xlink="http://www.w3.org/1999/xlink"><style>:root&gt;svg{display:none}:root&gt;svg:target{display:block}</style><svg viewBox="0 0 213 154" id="dots-bg" xmlns="http://www.w3.org/2000/svg"><circle cx="1.776" cy="1.776" r="1.776" fill="#EBEBEB"/><circle cx="12.776" cy="1.776" r="1.776" fill="#EBEBEB"/><circle cx="23.776" cy="1.776" r="1.776" fill="#EBEBEB"/><circle cx="34.776" cy="1.776" r="1.776" fill="#EBEBEB"/><circle cx="45.776" cy="1.776" r="1.776" fill="#EBEBEB"/><circle cx="56.776" cy="1.776" r="1.776" fill="#EBEBEB"/><circle cx="67.776" cy="1.776" r="1.776" fill="#EBEBEB"/><circle cx="78.776" cy="1.776" r="1.776" fill="#EBEBEB"/><circle cx="89.776" cy="1.776" r="1.776" fill="#EBEBEB"/><circle cx="100.776" cy="1.776" r="1.776" fill="#EBEBEB"/><circle cx="111.776" cy="1.776" r="1.776" fill="#EBEBEB"/><circle cx="122.776" cy="1.776" r="1.776" fill="#EBEBEB"/><circle cx="133.776" cy="1.776" r="1.776" fill="#EBEBEB"/><circle cx="144.776" cy="1.776" r="1.776" fill="#EBEBEB"/><circle cx="155.776" cy="1.776" r="1.776" fill="#EBEBEB"/><circle cx="166.776" cy="1.776" r="1.776" fill="#EBEBEB"/><circle cx="177.776" cy="1.776" r="1.776" fill="#EBEBEB"/><circle cx="188.776" cy="1.776" r="1.776" fill="#EBEBEB"/><circle cx="199.776" cy="1.776" r="1.776" fill="#EBEBEB"/><circle cx="210.776" cy="1.776" r="1.776" fill="#EBEBEB"/><circle cx="1.776" cy="11.776" r="1.776" fill="#EBEBEB"/><circle cx="12.776" cy="11.776" r="1.776" fill="#EBEBEB"/><circle cx="23.776" cy="11.776" r="1.776" fill="#EBEBEB"/><circle cx="34.776" cy="11.776" r="1.776" fill="#EBEBEB"/><circle cx="45.776" cy="11.776" r="1.776" fill="#EBEBEB"/><circle cx="56.776" cy="11.776" r="1.776" fill="#EBEBEB"/><circle cx="67.776" cy="11.776" r="1.776" fill="#EBEBEB"/><circle cx="78.776" cy="11.776" r="1.776" fill="#EBEBEB"/><circle cx="89.776" cy="11.776" r="1.776" fill="#EBEBEB"/><circle cx="100.776" cy="11.776" r="1.776" fill="#EBEBEB"/><circle cx="111.776" cy="11.776" r="1.776" fill="#EBEBEB"/><circle cx="122.776" cy="11.776" r="1.776" fill="#EBEBEB"/><circle cx="133.776" cy="11.776" r="1.776" fill="#EBEBEB"/><circle cx="144.776" cy="11.776" r="1.776" fill="#EBEBEB"/><circle cx="155.776" cy="11.776" r="1.776" fill="#EBEBEB"/><circle cx="166.776" cy="11.776" r="1.776" fill="#EBEBEB"/><circle cx="177.776" cy="11.776" r="1.776" fill="#EBEBEB"/><circle cx="188.776" cy="11.776" r="1.776" fill="#EBEBEB"/><circle cx="199.776" cy="11.776" r="1.776" fill="#EBEBEB"/><circle cx="210.776" cy="11.776" r="1.776" fill="#EBEBEB"/><circle cx="1.776" cy="21.776" r="1.776" fill="#EBEBEB"/><circle cx="12.776" cy="21.776" r="1.776" fill="#EBEBEB"/><circle cx="23.776" cy="21.776" r="1.776" fill="#EBEBEB"/><circle cx="34.776" cy="21.776" r="1.776" fill="#EBEBEB"/><circle cx="45.776" cy="21.776" r="1.776" fill="#EBEBEB"/><circle cx="56.776" cy="21.776" r="1.776" fill="#EBEBEB"/><circle cx="67.776" cy="21.776" r="1.776" fill="#EBEBEB"/><circle cx="78.776" cy="21.776" r="1.776" fill="#EBEBEB"/><circle cx="89.776" cy="21.776" r="1.776" fill="#EBEBEB"/><circle cx="100.776" cy="21.776" r="1.776" fill="#EBEBEB"/><circle cx="111.776" cy="21.776" r="1.776" fill="#EBEBEB"/><circle cx="122.776" cy="21.776" r="1.776" fill="#EBEBEB"/><circle cx="133.776" cy="21.776" r="1.776" fill="#EBEBEB"/><circle cx="144.776" cy="21.776" r="1.776" fill="#EBEBEB"/><circle cx="155.776" cy="21.776" r="1.776" fill="#EBEBEB"/><circle cx="166.776" cy="21.776" r="1.776" fill="#EBEBEB"/><circle cx="177.776" cy="21.776" r="1.776" fill="#EBEBEB"/><circle cx="188.776" cy="21.776" r="1.776" fill="#EBEBEB"/><circle cx="199.776" cy="21.776" r="1.776" fill="#EBEBEB"/><circle cx="210.776" cy="21.776" r="1.776" fill="#EBEBEB"/><circle cx="1.776" cy="31.776" r="1.776" fill="#EBEBEB"/><circle cx="12.776" cy="31.776" r="1.776" fill="#EBEBEB"/><circle cx="23.776" cy="31.776" r="1.776" fill="#EBEBEB"/><circle cx="34.776" cy="31.776" r="1.776" fill="#EBEBEB"/><circle cx="45.776" cy="31.776" r="1.776" fill="#EBEBEB"/><circle cx="56.776" cy="31.776" r="1.776" fill="#EBEBEB"/><circle cx="67.776" cy="31.776" r="1.776" fill="#EBEBEB"/><circle cx="78.776" cy="31.776" r="1.776" fill="#EBEBEB"/><circle cx="89.776" cy="31.776" r="1.776" fill="#EBEBEB"/><circle cx="100.776" cy="31.776" r="1.776" fill="#EBEBEB"/><circle cx="111.776" cy="31.776" r="1.776" fill="#EBEBEB"/><circle cx="122.776" cy="31.776" r="1.776" fill="#EBEBEB"/><circle cx="133.776" cy="31.776" r="1.776" fill="#EBEBEB"/><circle cx="144.776" cy="31.776" r="1.776" fill="#EBEBEB"/><circle cx="155.776" cy="31.776" r="1.776" fill="#EBEBEB"/><circle cx="166.776" cy="31.776" r="1.776" fill="#EBEBEB"/><circle cx="177.776" cy="31.776" r="1.776" fill="#EBEBEB"/><circle cx="188.776" cy="31.776" r="1.776" fill="#EBEBEB"/><circle cx="199.776" cy="31.776" r="1.776" fill="#EBEBEB"/><circle cx="210.776" cy="31.776" r="1.776" fill="#EBEBEB"/><circle cx="1.776" cy="41.776" r="1.776" fill="#EBEBEB"/><circle cx="12.776" cy="41.776" r="1.776" fill="#EBEBEB"/><circle cx="23.776" cy="41.776" r="1.776" fill="#EBEBEB"/><circle cx="34.776" cy="41.776" r="1.776" fill="#EBEBEB"/><circle cx="45.776" cy="41.776" r="1.776" fill="#EBEBEB"/><circle cx="56.776" cy="41.776" r="1.776" fill="#EBEBEB"/><circle cx="67.776" cy="41.776" r="1.776" fill="#EBEBEB"/><circle cx="78.776" cy="41.776" r="1.776" fill="#EBEBEB"/><circle cx="89.776" cy="41.776" r="1.776" fill="#EBEBEB"/><circle cx="100.776" cy="41.776" r="1.776" fill="#EBEBEB"/><circle cx="111.776" cy="41.776" r="1.776" fill="#EBEBEB"/><circle cx="122.776" cy="41.776" r="1.776" fill="#EBEBEB"/><circle cx="133.776" cy="41.776" r="1.776" fill="#EBEBEB"/><circle cx="144.776" cy="41.776" r="1.776" fill="#EBEBEB"/><circle cx="155.776" cy="41.776" r="1.776" fill="#EBEBEB"/><circle cx="166.776" cy="41.776" r="1.776" fill="#EBEBEB"/><circle cx="177.776" cy="41.776" r="1.776" fill="#EBEBEB"/><circle cx="188.776" cy="41.776" r="1.776" fill="#EBEBEB"/><circle cx="199.776" cy="41.776" r="1.776" fill="#EBEBEB"/><circle cx="210.776" cy="41.776" r="1.776" fill="#EBEBEB"/><circle cx="1.776" cy="51.776" r="1.776" fill="#EBEBEB"/><circle cx="12.776" cy="51.776" r="1.776" fill="#EBEBEB"/><circle cx="23.776" cy="51.776" r="1.776" fill="#EBEBEB"/><circle cx="34.776" cy="51.776" r="1.776" fill="#EBEBEB"/><circle cx="45.776" cy="51.776" r="1.776" fill="#EBEBEB"/><circle cx="56.776" cy="51.776" r="1.776" fill="#EBEBEB"/><circle cx="67.776" cy="51.776" r="1.776" fill="#EBEBEB"/><circle cx="78.776" cy="51.776" r="1.776" fill="#EBEBEB"/><circle cx="89.776" cy="51.776" r="1.776" fill="#EBEBEB"/><circle cx="100.776" cy="51.776" r="1.776" fill="#EBEBEB"/><circle cx="111.776" cy="51.776" r="1.776" fill="#EBEBEB"/><circle cx="122.776" cy="51.776" r="1.776" fill="#EBEBEB"/><circle cx="133.776" cy="51.776" r="1.776" fill="#EBEBEB"/><circle cx="144.776" cy="51.776" r="1.776" fill="#EBEBEB"/><circle cx="155.776" cy="51.776" r="1.776" fill="#EBEBEB"/><circle cx="166.776" cy="51.776" r="1.776" fill="#EBEBEB"/><circle cx="177.776" cy="51.776" r="1.776" fill="#EBEBEB"/><circle cx="188.776" cy="51.776" r="1.776" fill="#EBEBEB"/><circle cx="199.776" cy="51.776" r="1.776" fill="#EBEBEB"/><circle cx="210.776" cy="51.776" r="1.776" fill="#EBEBEB"/><circle cx="1.776" cy="61.776" r="1.776" fill="#EBEBEB"/><circle cx="12.776" cy="61.776" r="1.776" fill="#EBEBEB"/><circle cx="23.776" cy="61.776" r="1.776" fill="#EBEBEB"/><circle cx="34.776" cy="61.776" r="1.776" fill="#EBEBEB"/><circle cx="45.776" cy="61.776" r="1.776" fill="#EBEBEB"/><circle cx="56.776" cy="61.776" r="1.776" fill="#EBEBEB"/><circle cx="67.776" cy="61.776" r="1.776" fill="#EBEBEB"/><circle cx="78.776" cy="61.776" r="1.776" fill="#EBEBEB"/><circle cx="89.776" cy="61.776" r="1.776" fill="#EBEBEB"/><circle cx="100.776" cy="61.776" r="1.776" fill="#EBEBEB"/><circle cx="111.776" cy="61.776" r="1.776" fill="#EBEBEB"/><circle cx="122.776" cy="61.776" r="1.776" fill="#EBEBEB"/><circle cx="133.776" cy="61.776" r="1.776" fill="#EBEBEB"/><circle cx="144.776" cy="61.776" r="1.776" fill="#EBEBEB"/><circle cx="155.776" cy="61.776" r="1.776" fill="#EBEBEB"/><circle cx="166.776" cy="61.776" r="1.776" fill="#EBEBEB"/><circle cx="177.776" cy="61.776" r="1.776" fill="#EBEBEB"/><circle cx="188.776" cy="61.776" r="1.776" fill="#EBEBEB"/><circle cx="199.776" cy="61.776" r="1.776" fill="#EBEBEB"/><circle cx="210.776" cy="61.776" r="1.776" fill="#EBEBEB"/><circle cx="1.776" cy="71.776" r="1.776" fill="#EBEBEB"/><circle cx="12.776" cy="71.776" r="1.776" fill="#EBEBEB"/><circle cx="23.776" cy="71.776" r="1.776" fill="#EBEBEB"/><circle cx="34.776" cy="71.776" r="1.776" fill="#EBEBEB"/><circle cx="45.776" cy="71.776" r="1.776" fill="#EBEBEB"/><circle cx="56.776" cy="71.776" r="1.776" fill="#EBEBEB"/><circle cx="67.776" cy="71.776" r="1.776" fill="#EBEBEB"/><circle cx="78.776" cy="71.776" r="1.776" fill="#EBEBEB"/><circle cx="89.776" cy="71.776" r="1.776" fill="#EBEBEB"/><circle cx="100.776" cy="71.776" r="1.776" fill="#EBEBEB"/><circle cx="111.776" cy="71.776" r="1.776" fill="#EBEBEB"/><circle cx="122.776" cy="71.776" r="1.776" fill="#EBEBEB"/><circle cx="133.776" cy="71.776" r="1.776" fill="#EBEBEB"/><circle cx="144.776" cy="71.776" r="1.776" fill="#EBEBEB"/><circle cx="155.776" cy="71.776" r="1.776" fill="#EBEBEB"/><circle cx="166.776" cy="71.776" r="1.776" fill="#EBEBEB"/><circle cx="177.776" cy="71.776" r="1.776" fill="#EBEBEB"/><circle cx="188.776" cy="71.776" r="1.776" fill="#EBEBEB"/><circle cx="199.776" cy="71.776" r="1.776" fill="#EBEBEB"/><circle cx="210.776" cy="71.776" r="1.776" fill="#EBEBEB"/><circle cx="1.776" cy="81.776" r="1.776" fill="#EBEBEB"/><circle cx="12.776" cy="81.776" r="1.776" fill="#EBEBEB"/><circle cx="23.776" cy="81.776" r="1.776" fill="#EBEBEB"/><circle cx="34.776" cy="81.776" r="1.776" fill="#EBEBEB"/><circle cx="45.776" cy="81.776" r="1.776" fill="#EBEBEB"/><circle cx="56.776" cy="81.776" r="1.776" fill="#EBEBEB"/><circle cx="67.776" cy="81.776" r="1.776" fill="#EBEBEB"/><circle cx="78.776" cy="81.776" r="1.776" fill="#EBEBEB"/><circle cx="89.776" cy="81.776" r="1.776" fill="#EBEBEB"/><circle cx="100.776" cy="81.776" r="1.776" fill="#EBEBEB"/><circle cx="111.776" cy="81.776" r="1.776" fill="#EBEBEB"/><circle cx="122.776" cy="81.776" r="1.776" fill="#EBEBEB"/><circle cx="133.776" cy="81.776" r="1.776" fill="#EBEBEB"/><circle cx="144.776" cy="81.776" r="1.776" fill="#EBEBEB"/><circle cx="155.776" cy="81.776" r="1.776" fill="#EBEBEB"/><circle cx="166.776" cy="81.776" r="1.776" fill="#EBEBEB"/><circle cx="177.776" cy="81.776" r="1.776" fill="#EBEBEB"/><circle cx="188.776" cy="81.776" r="1.776" fill="#EBEBEB"/><circle cx="199.776" cy="81.776" r="1.776" fill="#EBEBEB"/><circle cx="210.776" cy="81.776" r="1.776" fill="#EBEBEB"/><circle cx="1.776" cy="91.776" r="1.776" fill="#EBEBEB"/><circle cx="12.776" cy="91.776" r="1.776" fill="#EBEBEB"/><circle cx="23.776" cy="91.776" r="1.776" fill="#EBEBEB"/><circle cx="34.776" cy="91.776" r="1.776" fill="#EBEBEB"/><circle cx="45.776" cy="91.776" r="1.776" fill="#EBEBEB"/><circle cx="56.776" cy="91.776" r="1.776" fill="#EBEBEB"/><circle cx="67.776" cy="91.776" r="1.776" fill="#EBEBEB"/><circle cx="78.776" cy="91.776" r="1.776" fill="#EBEBEB"/><circle cx="89.776" cy="91.776" r="1.776" fill="#EBEBEB"/><circle cx="100.776" cy="91.776" r="1.776" fill="#EBEBEB"/><circle cx="111.776" cy="91.776" r="1.776" fill="#EBEBEB"/><circle cx="122.776" cy="91.776" r="1.776" fill="#EBEBEB"/><circle cx="133.776" cy="91.776" r="1.776" fill="#EBEBEB"/><circle cx="144.776" cy="91.776" r="1.776" fill="#EBEBEB"/><circle cx="155.776" cy="91.776" r="1.776" fill="#EBEBEB"/><circle cx="166.776" cy="91.776" r="1.776" fill="#EBEBEB"/><circle cx="177.776" cy="91.776" r="1.776" fill="#EBEBEB"/><circle cx="188.776" cy="91.776" r="1.776" fill="#EBEBEB"/><circle cx="199.776" cy="91.776" r="1.776" fill="#EBEBEB"/><circle cx="210.776" cy="91.776" r="1.776" fill="#EBEBEB"/><circle cx="1.776" cy="101.776" r="1.776" fill="#EBEBEB"/><circle cx="12.776" cy="101.776" r="1.776" fill="#EBEBEB"/><circle cx="23.776" cy="101.776" r="1.776" fill="#EBEBEB"/><circle cx="34.776" cy="101.776" r="1.776" fill="#EBEBEB"/><circle cx="45.776" cy="101.776" r="1.776" fill="#EBEBEB"/><circle cx="56.776" cy="101.776" r="1.776" fill="#EBEBEB"/><circle cx="67.776" cy="101.776" r="1.776" fill="#EBEBEB"/><circle cx="78.776" cy="101.776" r="1.776" fill="#EBEBEB"/><circle cx="89.776" cy="101.776" r="1.776" fill="#EBEBEB"/><circle cx="100.776" cy="101.776" r="1.776" fill="#EBEBEB"/><circle cx="111.776" cy="101.776" r="1.776" fill="#EBEBEB"/><circle cx="122.776" cy="101.776" r="1.776" fill="#EBEBEB"/><circle cx="133.776" cy="101.776" r="1.776" fill="#EBEBEB"/><circle cx="144.776" cy="101.776" r="1.776" fill="#EBEBEB"/><circle cx="155.776" cy="101.776" r="1.776" fill="#EBEBEB"/><circle cx="166.776" cy="101.776" r="1.776" fill="#EBEBEB"/><circle cx="177.776" cy="101.776" r="1.776" fill="#EBEBEB"/><circle cx="188.776" cy="101.776" r="1.776" fill="#EBEBEB"/><circle cx="199.776" cy="101.776" r="1.776" fill="#EBEBEB"/><circle cx="210.776" cy="101.776" r="1.776" fill="#EBEBEB"/><circle cx="1.776" cy="111.776" r="1.776" fill="#EBEBEB"/><circle cx="12.776" cy="111.776" r="1.776" fill="#EBEBEB"/><circle cx="23.776" cy="111.776" r="1.776" fill="#EBEBEB"/><circle cx="34.776" cy="111.776" r="1.776" fill="#EBEBEB"/><circle cx="45.776" cy="111.776" r="1.776" fill="#EBEBEB"/><circle cx="56.776" cy="111.776" r="1.776" fill="#EBEBEB"/><circle cx="67.776" cy="111.776" r="1.776" fill="#EBEBEB"/><circle cx="78.776" cy="111.776" r="1.776" fill="#EBEBEB"/><circle cx="89.776" cy="111.776" r="1.776" fill="#EBEBEB"/><circle cx="100.776" cy="111.776" r="1.776" fill="#EBEBEB"/><circle cx="111.776" cy="111.776" r="1.776" fill="#EBEBEB"/><circle cx="122.776" cy="111.776" r="1.776" fill="#EBEBEB"/><circle cx="133.776" cy="111.776" r="1.776" fill="#EBEBEB"/><circle cx="144.776" cy="111.776" r="1.776" fill="#EBEBEB"/><circle cx="155.776" cy="111.776" r="1.776" fill="#EBEBEB"/><circle cx="166.776" cy="111.776" r="1.776" fill="#EBEBEB"/><circle cx="177.776" cy="111.776" r="1.776" fill="#EBEBEB"/><circle cx="188.776" cy="111.776" r="1.776" fill="#EBEBEB"/><circle cx="199.776" cy="111.776" r="1.776" fill="#EBEBEB"/><circle cx="210.776" cy="111.776" r="1.776" fill="#EBEBEB"/><circle cx="1.776" cy="121.776" r="1.776" fill="#EBEBEB"/><circle cx="12.776" cy="121.776" r="1.776" fill="#EBEBEB"/><circle cx="23.776" cy="121.776" r="1.776" fill="#EBEBEB"/><circle cx="34.776" cy="121.776" r="1.776" fill="#EBEBEB"/><circle cx="45.776" cy="121.776" r="1.776" fill="#EBEBEB"/><circle cx="56.776" cy="121.776" r="1.776" fill="#EBEBEB"/><circle cx="67.776" cy="121.776" r="1.776" fill="#EBEBEB"/><circle cx="78.776" cy="121.776" r="1.776" fill="#EBEBEB"/><circle cx="89.776" cy="121.776" r="1.776" fill="#EBEBEB"/><circle cx="100.776" cy="121.776" r="1.776" fill="#EBEBEB"/><circle cx="111.776" cy="121.776" r="1.776" fill="#EBEBEB"/><circle cx="122.776" cy="121.776" r="1.776" fill="#EBEBEB"/><circle cx="133.776" cy="121.776" r="1.776" fill="#EBEBEB"/><circle cx="144.776" cy="121.776" r="1.776" fill="#EBEBEB"/><circle cx="155.776" cy="121.776" r="1.776" fill="#EBEBEB"/><circle cx="166.776" cy="121.776" r="1.776" fill="#EBEBEB"/><circle cx="177.776" cy="121.776" r="1.776" fill="#EBEBEB"/><circle cx="188.776" cy="121.776" r="1.776" fill="#EBEBEB"/><circle cx="199.776" cy="121.776" r="1.776" fill="#EBEBEB"/><circle cx="210.776" cy="121.776" r="1.776" fill="#EBEBEB"/><circle cx="1.776" cy="131.776" r="1.776" fill="#EBEBEB"/><circle cx="12.776" cy="131.776" r="1.776" fill="#EBEBEB"/><circle cx="23.776" cy="131.776" r="1.776" fill="#EBEBEB"/><circle cx="34.776" cy="131.776" r="1.776" fill="#EBEBEB"/><circle cx="45.776" cy="131.776" r="1.776" fill="#EBEBEB"/><circle cx="56.776" cy="131.776" r="1.776" fill="#EBEBEB"/><circle cx="67.776" cy="131.776" r="1.776" fill="#EBEBEB"/><circle cx="78.776" cy="131.776" r="1.776" fill="#EBEBEB"/><circle cx="89.776" cy="131.776" r="1.776" fill="#EBEBEB"/><circle cx="100.776" cy="131.776" r="1.776" fill="#EBEBEB"/><circle cx="111.776" cy="131.776" r="1.776" fill="#EBEBEB"/><circle cx="122.776" cy="131.776" r="1.776" fill="#EBEBEB"/><circle cx="133.776" cy="131.776" r="1.776" fill="#EBEBEB"/><circle cx="144.776" cy="131.776" r="1.776" fill="#EBEBEB"/><circle cx="155.776" cy="131.776" r="1.776" fill="#EBEBEB"/><circle cx="166.776" cy="131.776" r="1.776" fill="#EBEBEB"/><circle cx="177.776" cy="131.776" r="1.776" fill="#EBEBEB"/><circle cx="188.776" cy="131.776" r="1.776" fill="#EBEBEB"/><circle cx="199.776" cy="131.776" r="1.776" fill="#EBEBEB"/><circle cx="210.776" cy="131.776" r="1.776" fill="#EBEBEB"/><circle cx="1.776" cy="141.776" r="1.776" fill="#EBEBEB"/><circle cx="12.776" cy="141.776" r="1.776" fill="#EBEBEB"/><circle cx="23.776" cy="141.776" r="1.776" fill="#EBEBEB"/><circle cx="34.776" cy="141.776" r="1.776" fill="#EBEBEB"/><circle cx="45.776" cy="141.776" r="1.776" fill="#EBEBEB"/><circle cx="56.776" cy="141.776" r="1.776" fill="#EBEBEB"/><circle cx="67.776" cy="141.776" r="1.776" fill="#EBEBEB"/><circle cx="78.776" cy="141.776" r="1.776" fill="#EBEBEB"/><circle cx="89.776" cy="141.776" r="1.776" fill="#EBEBEB"/><circle cx="100.776" cy="141.776" r="1.776" fill="#EBEBEB"/><circle cx="111.776" cy="141.776" r="1.776" fill="#EBEBEB"/><circle cx="122.776" cy="141.776" r="1.776" fill="#EBEBEB"/><circle cx="133.776" cy="141.776" r="1.776" fill="#EBEBEB"/><circle cx="144.776" cy="141.776" r="1.776" fill="#EBEBEB"/><circle cx="155.776" cy="141.776" r="1.776" fill="#EBEBEB"/><circle cx="166.776" cy="141.776" r="1.776" fill="#EBEBEB"/><circle cx="177.776" cy="141.776" r="1.776" fill="#EBEBEB"/><circle cx="188.776" cy="141.776" r="1.776" fill="#EBEBEB"/><circle cx="199.776" cy="141.776" r="1.776" fill="#EBEBEB"/><circle cx="210.776" cy="141.776" r="1.776" fill="#EBEBEB"/><circle cx="1.776" cy="151.776" r="1.776" fill="#EBEBEB"/><circle cx="12.776" cy="151.776" r="1.776" fill="#EBEBEB"/><circle cx="23.776" cy="151.776" r="1.776" fill="#EBEBEB"/><circle cx="34.776" cy="151.776" r="1.776" fill="#EBEBEB"/><circle cx="45.776" cy="151.776" r="1.776" fill="#EBEBEB"/><circle cx="56.776" cy="151.776" r="1.776" fill="#EBEBEB"/><circle cx="67.776" cy="151.776" r="1.776" fill="#EBEBEB"/><circle cx="78.776" cy="151.776" r="1.776" fill="#EBEBEB"/><circle cx="89.776" cy="151.776" r="1.776" fill="#EBEBEB"/><circle cx="100.776" cy="151.776" r="1.776" fill="#EBEBEB"/><circle cx="111.776" cy="151.776" r="1.776" fill="#EBEBEB"/><circle cx="122.776" cy="151.776" r="1.776" fill="#EBEBEB"/><circle cx="133.776" cy="151.776" r="1.776" fill="#EBEBEB"/><circle cx="144.776" cy="151.776" r="1.776" fill="#EBEBEB"/><circle cx="155.776" cy="151.776" r="1.776" fill="#EBEBEB"/><circle cx="166.776" cy="151.776" r="1.776" fill="#EBEBEB"/><circle cx="177.776" cy="151.776" r="1.776" fill="#EBEBEB"/><circle cx="188.776" cy="151.776" r="1.776" fill="#EBEBEB"/><circle cx="199.776" cy="151.776" r="1.776" fill="#EBEBEB"/><circle cx="210.776" cy="151.776" r="1.776" fill="#EBEBEB"/></svg><svg fill="none" viewBox="0 0 48 48" id="facebook" xmlns="http://www.w3.org/2000/svg"><path fill-rule="evenodd" clip-rule="evenodd" d="M24 0C10.745 0 0 10.745 0 24s10.745 24 24 24 24-10.745 24-24S37.255 0 24 0zm2.502 25.054v13.058h-5.403V25.054H18.4v-4.5h2.7v-2.701c0-3.671 1.523-5.854 5.853-5.854h3.605v4.5h-2.253c-1.686 0-1.797.629-1.797 1.802l-.006 2.253h4.082l-.478 4.5h-3.604z" fill="#000"/></svg><svg fill="none" viewBox="0 0 48 48" id="instagram" xmlns="http://www.w3.org/2000/svg"><path fill-rule="evenodd" clip-rule="evenodd" d="M24 0C10.745 0 0 10.745 0 24s10.745 24 24 24 24-10.745 24-24S37.255 0 24 0zm-5.277 11.277c1.366-.062 1.802-.077 5.278-.077h-.004c3.478 0 3.912.015 5.278.077 1.362.063 2.293.279 3.109.595a6.256 6.256 0 012.267 1.476 6.281 6.281 0 011.477 2.268c.315.813.53 1.744.595 3.106.061 1.366.077 1.802.077 5.278 0 3.476-.016 3.912-.077 5.277-.064 1.362-.28 2.293-.595 3.107a6.283 6.283 0 01-1.477 2.267 6.263 6.263 0 01-2.266 1.477c-.815.317-1.746.532-3.108.595-1.366.062-1.8.077-5.277.077-3.476 0-3.912-.015-5.278-.077-1.362-.063-2.293-.278-3.107-.595a6.268 6.268 0 01-2.267-1.477 6.271 6.271 0 01-1.476-2.268c-.316-.814-.532-1.744-.595-3.106-.061-1.366-.077-1.8-.077-5.277 0-3.476.016-3.913.077-5.278.061-1.362.277-2.293.595-3.107a6.284 6.284 0 011.477-2.267 6.268 6.268 0 012.268-1.476c.813-.316 1.744-.532 3.106-.595z" fill="#000"/><path fill-rule="evenodd" clip-rule="evenodd" d="M22.853 13.507h1.148c3.418 0 3.823.012 5.173.073 1.248.057 1.925.266 2.376.441.598.232 1.023.51 1.471.957.448.449.725.875.958 1.473.175.45.384 1.127.44 2.375.062 1.35.075 1.755.075 5.171 0 3.416-.013 3.822-.074 5.171-.057 1.248-.266 1.925-.441 2.376a3.958 3.958 0 01-.958 1.47 3.959 3.959 0 01-1.47.958c-.451.176-1.13.384-2.377.44-1.35.062-1.755.075-5.173.075s-3.823-.013-5.172-.074c-1.248-.058-1.925-.266-2.377-.441a3.965 3.965 0 01-1.472-.958 3.968 3.968 0 01-.958-1.471c-.175-.45-.384-1.128-.44-2.376-.062-1.35-.074-1.755-.074-5.173s.012-3.821.073-5.17c.058-1.249.266-1.926.441-2.377a3.96 3.96 0 01.958-1.472 3.972 3.972 0 011.472-.958c.451-.176 1.129-.384 2.377-.441 1.18-.054 1.638-.07 4.024-.072v.003zm7.98 2.125a1.536 1.536 0 100 3.073 1.536 1.536 0 000-3.073zM17.429 24a6.574 6.574 0 1113.147 0 6.574 6.574 0 01-13.147 0z" fill="#000"/><path d="M24.001 19.733a4.267 4.267 0 110 8.534 4.267 4.267 0 010-8.534z" fill="#000"/></svg><svg fill="none" viewBox="0 0 48 48" id="linkedin" xmlns="http://www.w3.org/2000/svg"><path fill-rule="evenodd" clip-rule="evenodd" d="M24 0C10.745 0 0 10.745 0 24s10.745 24 24 24 24-10.745 24-24S37.255 0 24 0zM11.522 19.878h5.438V36.22h-5.438V19.878zm5.797-5.055C17.284 13.22 16.138 12 14.277 12c-1.86 0-3.077 1.22-3.077 2.823 0 1.569 1.18 2.824 3.006 2.824h.035c1.897 0 3.078-1.255 3.078-2.824zm12.994 4.671c3.58 0 6.262 2.336 6.262 7.356v9.37h-5.439v-8.743c0-2.196-.787-3.695-2.755-3.695-1.503 0-2.398 1.01-2.791 1.986-.144.35-.18.837-.18 1.325v9.127h-5.439s.072-14.808 0-16.342h5.44v2.315c.721-1.113 2.014-2.699 4.902-2.699z" fill="#000"/></svg><svg fill="none" viewBox="0 0 48 48" id="twitter" xmlns="http://www.w3.org/2000/svg"><path fill-rule="evenodd" clip-rule="evenodd" d="M24 0C10.745 0 0 10.745 0 24s10.745 24 24 24 24-10.745 24-24S37.255 0 24 0zm-.668 20.338l-.05-.83c-.152-2.153 1.174-4.119 3.273-4.881.772-.272 2.081-.306 2.938-.068.335.101.973.44 1.427.745l.822.56.907-.288c.503-.153 1.175-.407 1.477-.577.285-.152.537-.237.537-.186 0 .288-.621 1.271-1.141 1.813-.706.763-.504.83.923.322.856-.288.873-.288.705.034-.1.17-.621.763-1.175 1.305-.94.932-.99 1.034-.99 1.814 0 1.203-.571 3.711-1.142 5.084-1.058 2.576-3.324 5.237-5.59 6.576-3.19 1.881-7.437 2.356-11.013 1.254-1.192-.373-3.24-1.322-3.24-1.491 0-.051.621-.119 1.377-.136a9.452 9.452 0 004.499-1.254l.906-.542-1.04-.356c-1.478-.509-2.804-1.678-3.14-2.78-.1-.356-.067-.373.873-.373l.974-.017-.823-.39c-.974-.49-1.863-1.321-2.3-2.169-.319-.61-.722-2.152-.604-2.27.033-.052.386.05.789.186 1.158.423 1.31.322.638-.39-1.26-1.288-1.645-3.203-1.041-5.017l.285-.813 1.108 1.101c2.267 2.22 4.936 3.543 7.991 3.932l.84.102z" fill="#000"/></svg></svg>